<svg width="24" height="20" viewBox="0 0 24 20" fill="none" xmlns="http://www.w3.org/2000/svg">
<path d="M22.7745 8.94587H3.6766L11.234 1.90157C11.6426 1.46808 11.7447 0.817832 11.3362 0.384337C10.9277 -0.0491586 10.3149 -0.157532 9.90638 0.275963L0.306383 9.27099C0.204255 9.37936 0.204255 9.37936 0.102128 9.48774C0.102128 9.48774 0.102128 9.59611 0 9.59611C0 9.70449 0 9.92123 0 10.0296C0 10.138 0 10.3547 0.102128 10.4631C0.102128 10.4631 0.102128 10.5715 0.204255 10.5715C0.204255 10.6799 0.306383 10.7882 0.408511 10.7882L9.90638 19.6749C10.1106 19.8916 10.3149 20 10.6213 20C10.9277 20 11.234 19.8916 11.4383 19.6749C11.8468 19.2414 11.7447 18.5911 11.3362 18.1576L3.88085 11.1133H22.9787C23.5915 11.1133 24 10.6799 24 10.0296C24 9.37936 23.3872 8.94587 22.7745 8.94587Z" fill="black"/>
</svg>
