<svg width="24" height="20" viewBox="0 0 24 20" fill="none" xmlns="http://www.w3.org/2000/svg">
<path d="M1.22553 8.94587H20.3234L12.766 1.90157C12.3574 1.46808 12.2553 0.817832 12.6638 0.384337C13.0723 -0.0491586 13.6851 -0.157532 14.0936 0.275963L23.6936 9.27099C23.7957 9.37936 23.7957 9.37936 23.8979 9.48774C23.8979 9.48774 23.8979 9.59611 24 9.59611C24 9.70449 24 9.92123 24 10.0296C24 10.138 24 10.3547 23.8979 10.4631C23.8979 10.4631 23.8979 10.5715 23.7957 10.5715C23.7957 10.6799 23.6936 10.7882 23.5915 10.7882L14.0936 19.6749C13.8894 19.8916 13.6851 20 13.3787 20C13.0723 20 12.766 19.8916 12.5617 19.6749C12.1532 19.2414 12.2553 18.5911 12.6638 18.1576L20.1191 11.1133H1.02128C0.40851 11.1133 0 10.6799 0 10.0296C0 9.37936 0.612766 8.94587 1.22553 8.94587Z" fill="#161918"/>
</svg>